# xmcd
#
# Track frame offsets: 
#        150
#        27755
#        59802
#        99057
#        110995
#        128245
#        158700
#        179522
#        194450
#        213680
#
# Disc length: 3303 seconds
#
# Revision: 3
# Processed by: cddbd v1.5.2PL0 Copyright (c) Steve Scherf et al.
# Submitted via: ExactAudioCopy v1.0b4
#
DISCID=930ce50a
DTITLE=Thelonius Monk - Standards
DYEAR=1989
DGENRE=Jazz
TTITLE0=Memories Of You
TTITLE1=Don't Blame Me
TTITLE2=Just You, Just Me
TTITLE3=I'm Confessin' (That I Love You)
TTITLE4=Tea For Two
TTITLE5=(I Love You, I Love You, I Love You) Sweetheart Of All My Drea
TTITLE5=ms
TTITLE6=Liza (All The Clouds'll Roll Away)
TTITLE7=I Hadn't Anyone Till You
TTITLE8=Nice Work If You Can Get It
TTITLE9=Between The Devil And The Deep Blue Sea
EXTD=
EXTT0=
EXTT1=
EXTT2=
EXTT3=
EXTT4=
EXTT5=
EXTT6=
EXTT7=
EXTT8=
EXTT9=
PLAYORDER=
